# File created by Blade
# Date/Time:  Thu Jan 22 16:00:53 2015
#---------------------------------------------------------
:version 1.10
:name HOM
:units
  mass 1.0
  length 1.000000
  angle deg
:documentation
     Acclaim Skeleton File
:root
   axis xyz
   order TX TY TZ RX RY RZ
   position 0.000000 0.000000 0.000000
   orientation 0 0 0
:bonedata
   begin
      id 1
      name RightUpLeg_dum
      direction -1.000000 0.000000 0.000000
      length 3.766986
      axis 0.0 0.0 0.0 xyz
   end
   begin
      id 2
      name LeftUpLeg_dum
      direction 1.000000 0.000000 0.000000
      length 3.766986
      axis 0.0 0.0 0.0 xyz
   end
   begin
      id 3
      name Spine_dum
      direction 0.000000 1.000000 0.000000
      length 7.779697
      axis 0.0 0.0 0.0 xyz
   end
   begin
      id 4
      name RightUpLeg
      direction 0.000000 -1.000000 0.000000
      length 18.017682
      axis 0.0 0.0 0.0 xyz
      dof rx ry rz
   end
   begin
      id 5
      name RightLeg
      direction 0.000000 -1.000000 0.000000
      length 16.881075
      axis 0.0 0.0 0.0 xyz
      dof rx ry rz
   end
   begin
      id 6
      name RightFoot
      direction 0.000000 -0.258819 0.965926
      length 5.770812
      axis 15.0 0.0 0.0 xyz
      dof rx ry rz
   end
   begin
      id 7
      name RightToeBase
      direction 0.000000 0.000000 1.000000
      length 2.952750
      axis 0.0 0.0 0.0 xyz
      dof rx ry rz
   end
   begin
      id 8
      name LeftUpLeg
      direction 0.000000 -1.000000 0.000000
      length 18.017682
      axis 0.0 0.0 0.0 xyz
      dof rx ry rz
   end
   begin
      id 9
      name LeftLeg
      direction 0.000000 -1.000000 0.000000
      length 16.881075
      axis 0.0 0.0 0.0 xyz
      dof rx ry rz
   end
   begin
      id 10
      name LeftFoot
      direction 0.000000 -0.258819 0.965926
      length 5.770812
      axis 15.0 0.0 0.0 xyz
      dof rx ry rz
   end
   begin
      id 11
      name LeftToeBase
      direction 0.000000 0.000000 1.000000
      length 2.952750
      axis 0.0 0.0 0.0 xyz
      dof rx ry rz
   end
   begin
      id 12
      name Spine
      direction 0.000000 1.000000 0.000000
      length 0.000000
      axis 0.0 0.0 0.0 xyz
      dof rx ry rz
   end
   begin
      id 13
      name Spine_dum1
      direction 0.000000 1.000000 0.000000
      length 10.941760
      axis 0.0 0.0 0.0 xyz
   end
   begin
      id 14
      name Spine_dum2
      direction 0.000000 1.000000 0.000000
      length 10.941760
      axis 0.0 0.0 0.0 xyz
   end
   begin
      id 15
      name Spine_dum3
      direction 0.000000 1.000000 0.000000
      length 16.646042
      axis 0.0 0.0 0.0 xyz
   end
   begin
      id 16
      name RightShoulder
      direction -1.000000 0.000000 0.000000
      length 7.708937
      axis 0.0 0.0 90.0 xyz
      dof rx ry rz
   end
   begin
      id 17
      name RightArm
      direction -1.000000 0.000000 0.000000
      length 11.521345
      axis 0.0 0.0 90.0 xyz
      dof rx ry rz
   end
   begin
      id 18
      name RightForeArm
      direction -1.000000 0.000000 0.000000
      length 10.175898
      axis 0.0 0.0 90.0 xyz
      dof ry rz rx
   end
   begin
      id 19
      name RightHand
      direction -1.000000 0.000000 0.000000
      length 0.000000
      axis 0.0 0.0 90.0 xyz
      dof rx ry rz
   end
   begin
      id 20
      name RightHand_dum1
      direction -1.000000 0.000000 0.000000
      length 3.937000
      axis 0.0 0.0 90.0 xyz
   end
   begin
      id 21
      name RightHand_dum2
      direction 0.000000 0.000000 0.000000
      length 0.000000
      axis 0.0 0.0 90.0 xyz
   end
   begin
      id 22
      name RightHandThumb1
      direction 0.000000 0.000000 1.000000
      length 3.937000
      axis 0.0 0.0 90.0 xyz
      dof rx rz ry
   end
   begin
      id 23
      name LeftShoulder
      direction 1.000000 0.000000 0.000000
      length 7.708937
      axis 0.0 0.0 -90.0 xyz
      dof rx ry rz
   end
   begin
      id 24
      name LeftArm
      direction 1.000000 0.000000 0.000000
      length 11.521345
      axis 0.0 0.0 -90.0 xyz
      dof rx ry rz
   end
   begin
      id 25
      name LeftForeArm
      direction 1.000000 0.000000 0.000000
      length 10.175898
      axis 0.0 0.0 -90.0 xyz
      dof ry rz rx
   end
   begin
      id 26
      name LeftHand
      direction 1.000000 0.000000 0.000000
      length 0.000000
      axis 0.0 0.0 -90.0 xyz
      dof rx ry rz
   end
   begin
      id 27
      name LeftHand_dum1
      direction 1.000000 0.000000 0.000000
      length 3.937000
      axis 0.0 0.0 -90.0 xyz
   end
   begin
      id 28
      name LeftHand_dum2
      direction 0.000000 0.000000 0.000000
      length 0.000000
      axis 0.0 0.0 -90.0 xyz
   end
   begin
      id 29
      name LeftHandThumb1
      direction 0.000000 0.000000 1.000000
      length 3.937000
      axis 0.0 0.0 -90.0 xyz
      dof rx rz ry
   end
   begin
      id 30
      name Head
      direction 0.000000 1.000000 0.000000
      length 4.527550
      axis 0.0 0.0 0.0 xyz
      dof rx ry rz
   end
:hierarchy
   begin
      root RightUpLeg_dum LeftUpLeg_dum Spine_dum
      RightUpLeg_dum RightUpLeg
      LeftUpLeg_dum LeftUpLeg
      Spine_dum Spine
      RightUpLeg RightLeg
      RightLeg RightFoot
      RightFoot RightToeBase
      LeftUpLeg LeftLeg
      LeftLeg LeftFoot
      LeftFoot LeftToeBase
      Spine Spine_dum1 Spine_dum2 Spine_dum3
      Spine_dum1 RightShoulder
      Spine_dum2 LeftShoulder
      Spine_dum3 Head
      RightShoulder RightArm
      RightArm RightForeArm
      RightForeArm RightHand
      RightHand RightHand_dum1 RightHand_dum2
      RightHand_dum2 RightHandThumb1
      LeftShoulder LeftArm
      LeftArm LeftForeArm
      LeftForeArm LeftHand
      LeftHand LeftHand_dum1 LeftHand_dum2
      LeftHand_dum2 LeftHandThumb1
   end

# File created by Blade
# Date/Time:  Thu Jan 22 16:00:44 2015
# Frame Rate: 120.000 fps
#------------------------------------------------------
:FULLY-SPECIFIED
:DEGREES
81
root 2.652515 37.009700 4.446003 -9.016619 -1.421318 2.190516
RightUpLeg 17.219651 -4.458595 -5.286596
RightLeg -3.589474 -0.000000 0.000000
RightFoot -13.617372 -12.127656 17.179733
RightToeBase 14.303850 -0.000000 -0.000000
LeftUpLeg 15.649633 5.234429 2.570588
LeftLeg -1.847895 -0.000000 0.000000
LeftFoot -9.035260 8.643434 -17.447327
LeftToeBase 8.869486 -0.000000 -0.000000
Spine 21.462631 -6.457969 -3.733068
RightShoulder -0.458449 -42.381431 -8.642450
RightArm 21.811008 -55.060873 58.804696
RightForeArm 45.731955 -0.000000 52.014174
RightHand 7.513279 -0.000000 9.030711
RightHandThumb1 -24.326973 -0.000000 -32.862282
LeftShoulder -33.341636 53.167174 -13.670092
LeftArm 42.220877 37.721131 -44.843566
LeftForeArm -9.012838 0.000000 45.111988
LeftHand -19.573445 -0.000000 -25.221514
LeftHandThumb1 -26.253704 0.000000 33.147579
Head 22.791167 16.405551 4.560630
82
root 2.644608 37.007155 4.469624 -9.200775 -1.503575 2.163128
RightUpLeg 17.388000 -4.425862 -5.267690
RightLeg -3.509522 -0.000000 0.000000
RightFoot -13.665329 -12.054096 17.156437
RightToeBase 14.278021 -0.000000 -0.000000
LeftUpLeg 15.866091 5.233399 2.629651
LeftLeg -1.807365 -0.000000 0.000000
LeftFoot -9.117130 8.667134 -17.474911
LeftToeBase 8.892082 -0.000000 -0.000000
Spine 21.627215 -6.459263 -3.764828
RightShoulder -0.426317 -42.707623 -8.468449
RightArm 22.080079 -55.713732 58.711288
RightForeArm 46.182314 -0.000000 52.826449
RightHand 7.469914 -0.000000 9.282495
RightHandThumb1 -24.326973 -0.000000 -32.862282
LeftShoulder -33.462455 53.485831 -14.089635
LeftArm 42.776836 38.618272 -44.491076
LeftForeArm -10.255908 -0.000000 46.016336
LeftHand -19.813222 -0.000000 -25.036654
LeftHandThumb1 -26.253704 0.000000 33.147579
Head 23.408082 16.285846 4.848216
83
root 2.638305 37.003965 4.498002 -9.392883 -1.589669 2.131783
RightUpLeg 17.571934 -4.408700 -5.252528
RightLeg -3.430190 -0.000000 0.000000
RightFoot -13.713124 -11.973778 17.136882
RightToeBase 14.309016 -0.000000 -0.000000
LeftUpLeg 16.096899 5.221941 2.685966
LeftLeg -1.755067 -0.000000 0.000000
LeftFoot -9.231722 8.701265 -17.520512
LeftToeBase 8.833032 -0.000000 -0.000000
Spine 21.771568 -6.483846 -3.794243
RightShoulder -0.313582 -43.061684 -8.378215
RightArm 22.337047 -56.329624 58.615641
RightForeArm 46.698227 -0.000000 53.668130
RightHand 7.422361 -0.000000 9.401848
RightHandThumb1 -24.326973 -0.000000 -32.862282
LeftShoulder -33.604073 53.823359 -14.489736
LeftArm 43.384796 39.460753 -44.155566
LeftForeArm -11.627173 -0.000000 46.819458
LeftHand -19.935219 -0.000000 -25.292193
LeftHandThumb1 -26.253704 0.000000 33.147579
Head 24.065224 16.181589 5.120090
84
root 2.632962 37.001801 4.523696 -9.608953 -1.676188 2.097842
RightUpLeg 17.734407 -4.469067 -5.257631
RightLeg -3.267330 -0.000000 0.000000
RightFoot -13.775158 -11.823514 17.098080
RightToeBase 14.275775 -0.000000 -0.000000
LeftUpLeg 16.354615 5.166925 2.727218
LeftLeg -1.727753 -0.000000 0.000000
LeftFoot -9.328598 8.820297 -17.529638
LeftToeBase 8.816488 -0.000000 -0.000000
Spine 21.959581 -6.494111 -3.808418
RightShoulder -0.195609 -43.443739 -8.313744
RightArm 22.694169 -56.914466 58.411470
RightForeArm 47.237557 -0.000000 54.502081
RightHand 7.409373 -0.000000 9.514899
RightHandThumb1 -24.326973 -0.000000 -32.862282
LeftShoulder -33.650427 54.122950 -14.829835
LeftArm 43.971358 40.288470 -43.775431
LeftForeArm -13.058662 -0.000000 47.649991
LeftHand -20.174691 -0.000000 -25.413634
LeftHandThumb1 -26.253704 0.000000 33.147579
Head 24.722183 16.048943 5.355400
